<?xml version="1.0" encoding="utf-8"?>
<!-- Generator: Adobe Illustrator 21.0.2, SVG Export Plug-In . SVG Version: 6.00 Build 0)  -->
<svg version="1.1" id="Calque_2" xmlns="http://www.w3.org/2000/svg" xmlns:xlink="http://www.w3.org/1999/xlink" x="0px" y="0px"
	 viewBox="0 0 800 614" style="enable-background:new 0 0 800 614;" xml:space="preserve">
<style type="text/css">
	.st0{fill:#432918;}
	.st1{fill:none;}
	.st2{fill:#936037;}
	.st3{fill:#C59527;}
	.st4{fill:#DDC07E;}
	.st5{fill:#BFBCB6;}
	.st6{fill:#706F6F;}
	.st7{fill:#D0A94F;}
</style>
<symbol  id="Nouveau_symbole" viewBox="-10.4 -6.1 20.7 12.2">
	
		<ellipse transform="matrix(0.9922 -0.1243 0.1243 0.9922 2.084495e-04 3.340819e-03)" class="st0" cx="0" cy="0" rx="10.4" ry="6"/>
	<g>
		<line class="st1" x1="10.3" y1="-1.3" x2="-10.3" y2="1.3"/>
		<path class="st2" d="M10.3-1.3C8.7-0.7,7-0.2,5.3,0.2S1.8,0.8,0.1,1.1s-3.5,0.4-5.2,0.4c-1.8,0.1-3.5,0-5.3-0.2
			C-8.7,0.7-7,0.2-5.3-0.2s3.4-0.7,5.1-0.9S3.2-1.5,5-1.5S8.6-1.5,10.3-1.3z"/>
	</g>
</symbol>
<title>cafe</title>
<path class="st3" d="M151,197.5c-8.1,34.9-37.3,111.5-43.8,131.6c-6.5,20.1-5.7,33.1-11.4,46.9c-5.7,13.8-13.8,72.2,0,97.4
	c13.8,25.1,6.5,32.4,30.8,33.3c24.3,0.8,232.8,2.4,272.6,0s157.4-6.2,157.4-6.2s-8.1-143.8-15.4-164.1s-7.1-36.5-15.3-53.5
	S511.2,256,508,241.5s-13-35.8-13-35.8L151,197.5z"/>
<path class="st4" d="M396.8,226.2c9.2-4.3,11.1,2.7,19.6,2.7s21.5-3,27.4-2.1c6,1,9.2-0.4,16.8,0s18.4-1,24.3,0
	c6,1,10.3,3.7,8.6,9.1c-1.6,5.4,3,20.7,4.3,28.1c2.7,15.1,5.4,20,8.6,28.1s7,14.6,9.7,24.3c2.7,9.7,6,15.7,0,18.9
	c-6,3.3-9.1,15.1-15.9,17.3c-6.8,2.2-11.1,0-16.5,6s-8.6,12.4-15.1,17.3s-10.8,8.1-18.4,10.8c3.2-15.7-0.5-21.6,0-29.8
	c0.5-8.1,2.7-20.2-1.6-27.9c-4.3-7.7-8.1-11-13.5-25.6s-8.1-9.2-10.3-25.4c-2.2-16.2-6.7-21.1-8.5-27c-1.8-5.9-7.7-9.2-12.6-13
	C399,234.3,399,231.6,396.8,226.2z"/>
<path class="st5" d="M370.9,496.9l162.3-157.4l56.8-22.7l21.1,8.1l95.7-100.1c18.7,2.8,28.4,11.7,30,24.7l-84.4,95.7l13.3,7.6
	l-4.3,60.6L630.6,497l-160.7,53.6L370.9,496.9z"/>
<path class="st6" d="M380.8,494.7l156.6-149l54.6-22.2l23.3,10.3L712.1,230c7.6,1.6,11.1,3.2,17.9,11.4l-91.4,103.3l17.9,10.8
	l-4.9,59L473.1,542.6L380.8,494.7z"/>
<polygon class="st5" points="405.5,492.3 495.3,405.8 500.4,438.2 443.9,494.5 "/>
<polygon class="st5" points="548.8,352.7 589.9,335.5 607.8,344.1 607.8,380.4 589.4,375.5 549.4,397.7 "/>
<use xlink:href="#Nouveau_symbole"  width="20.7" height="12.2" x="-10.4" y="-6.1" transform="matrix(2.1672 -0.2575 0.2575 2.1672 478.3657 477.0531)" style="overflow:visible;"/>
<use xlink:href="#Nouveau_symbole"  width="20.7" height="12.2" x="-10.4" y="-6.1" transform="matrix(1.4269 0.751 -0.751 1.4269 475.6084 503.9467)" style="overflow:visible;enable-background:new    ;"/>
<use xlink:href="#Nouveau_symbole"  width="20.7" height="12.2" x="-10.4" y="-6.1" transform="matrix(1.6093 0 0 1.6093 505.2667 494.3633)" style="overflow:visible;enable-background:new    ;"/>
<use xlink:href="#Nouveau_symbole"  width="20.7" height="12.2" x="-10.4" y="-6.1" transform="matrix(1.6093 0.1502 -0.1502 1.6093 500.6822 444.8077)" style="overflow:visible;enable-background:new    ;"/>
<use xlink:href="#Nouveau_symbole"  width="20.7" height="12.2" x="-10.4" y="-6.1" transform="matrix(1.8749 9.924534e-02 -9.924534e-02 1.8749 498.7254 482.0145)" style="overflow:visible;enable-background:new    ;"/>
<use xlink:href="#Nouveau_symbole"  width="20.7" height="12.2" x="-10.4" y="-6.1" transform="matrix(1.0555 1.794 -1.794 1.0555 438.0886 505.8316)" style="overflow:visible;enable-background:new    ;"/>
<use xlink:href="#Nouveau_symbole"  width="20.7" height="12.2" x="-10.4" y="-6.1" transform="matrix(1.6033 0.1389 -0.1389 1.6033 456.143 496.4612)" style="overflow:visible;enable-background:new    ;"/>
<use xlink:href="#Nouveau_symbole"  width="20.7" height="12.2" x="-10.4" y="-6.1" transform="matrix(1.8945 -0.7527 0.7527 1.8945 444.3605 479.581)" style="overflow:visible;enable-background:new    ;"/>
<use xlink:href="#Nouveau_symbole"  width="20.7" height="12.2" x="-10.4" y="-6.1" transform="matrix(1.0277 -1.2801 1.2801 1.0277 471.5863 464.0963)" style="overflow:visible;enable-background:new    ;"/>
<use xlink:href="#Nouveau_symbole"  width="20.7" height="12.2" x="-10.4" y="-6.1" transform="matrix(1.5771 -0.3112 0.3112 1.5771 512.5232 466.8795)" style="overflow:visible;enable-background:new    ;"/>
<use xlink:href="#Nouveau_symbole"  width="20.7" height="12.2" x="-10.4" y="-6.1" transform="matrix(0.7775 -1.409 1.409 0.7775 505.226 467.443)" style="overflow:visible;enable-background:new    ;"/>
<use xlink:href="#Nouveau_symbole"  width="20.7" height="12.2" x="-10.4" y="-6.1" transform="matrix(0.236 1.5986 -1.5986 0.236 523.2755 451.3199)" style="overflow:visible;enable-background:new    ;"/>
<use xlink:href="#Nouveau_symbole"  width="20.7" height="12.2" x="-10.4" y="-6.1" transform="matrix(1.5986 -0.397 0.397 1.5986 447.4852 530.1482)" style="overflow:visible;enable-background:new    ;"/>
<use xlink:href="#Nouveau_symbole"  width="20.7" height="12.2" x="-10.4" y="-6.1" transform="matrix(1.8776 1.072888e-02 -1.072888e-02 1.8776 412.2293 524.9432)" style="overflow:visible;enable-background:new    ;"/>
<use xlink:href="#Nouveau_symbole"  width="20.7" height="12.2" x="-10.4" y="-6.1" transform="matrix(1.6078 -7.019810e-02 7.019810e-02 1.6078 366.949 137.778)" style="overflow:visible;enable-background:new    ;"/>
<use xlink:href="#Nouveau_symbole"  width="20.7" height="12.2" x="-10.4" y="-6.1" transform="matrix(1.6951 -1.0531 1.0531 1.6951 376.491 120.8869)" style="overflow:visible;enable-background:new    ;"/>
<use xlink:href="#Nouveau_symbole"  width="20.7" height="12.2" x="-10.4" y="-6.1" transform="matrix(1.0192 1.545 -1.545 1.0192 439.9126 120.421)" style="overflow:visible;enable-background:new    ;"/>
<use xlink:href="#Nouveau_symbole"  width="20.7" height="12.2" x="-10.4" y="-6.1" transform="matrix(1.638 -0.6426 0.6426 1.638 396.7319 129.3338)" style="overflow:visible;enable-background:new    ;"/>
<use xlink:href="#Nouveau_symbole"  width="20.7" height="12.2" x="-10.4" y="-6.1" transform="matrix(0.9423 1.3046 -1.3046 0.9423 417.6589 124.9143)" style="overflow:visible;enable-background:new    ;"/>
<use xlink:href="#Nouveau_symbole"  width="20.7" height="12.2" x="-10.4" y="-6.1" transform="matrix(1.6093 0.1073 -0.1073 1.6093 470.0889 117.9744)" style="overflow:visible;enable-background:new    ;"/>
<use xlink:href="#Nouveau_symbole"  width="20.7" height="12.2" x="-10.4" y="-6.1" transform="matrix(1.758 -0.4438 0.4438 1.758 490.405 113.6675)" style="overflow:visible;enable-background:new    ;"/>
<use xlink:href="#Nouveau_symbole"  width="20.7" height="12.2" x="-10.4" y="-6.1" transform="matrix(1.5196 0.5298 -0.5298 1.5196 227.961 101.05)" style="overflow:visible;enable-background:new    ;"/>
<use xlink:href="#Nouveau_symbole"  width="20.7" height="12.2" x="-10.4" y="-6.1" transform="matrix(1.6093 0 0 1.6093 180.6841 104.8749)" style="overflow:visible;enable-background:new    ;"/>
<use xlink:href="#Nouveau_symbole"  width="20.7" height="12.2" x="-10.4" y="-6.1" transform="matrix(1.7381 6.437330e-02 -6.437330e-02 1.7381 239.8912 119.2487)" style="overflow:visible;enable-background:new    ;"/>
<use xlink:href="#Nouveau_symbole"  width="20.7" height="12.2" x="-10.4" y="-6.1" transform="matrix(1.6077 -0.815 0.815 1.6077 217.3334 124.2688)" style="overflow:visible;enable-background:new    ;"/>
<use xlink:href="#Nouveau_symbole"  width="20.7" height="12.2" x="-10.4" y="-6.1" transform="matrix(1.1453 -1.1306 1.1306 1.1453 196.6319 129.3725)" style="overflow:visible;enable-background:new    ;"/>
<use xlink:href="#Nouveau_symbole"  width="20.7" height="12.2" x="-10.4" y="-6.1" transform="matrix(1.5723 0.3433 -0.3433 1.5723 201.8638 107.9588)" style="overflow:visible;enable-background:new    ;"/>
<use xlink:href="#Nouveau_symbole"  width="20.7" height="12.2" x="-10.4" y="-6.1" transform="matrix(-7.510218e-02 -1.9205 1.9205 -7.510218e-02 262.5806 119.4669)" style="overflow:visible;enable-background:new    ;"/>
<use xlink:href="#Nouveau_symbole"  width="20.7" height="12.2" x="-10.4" y="-6.1" transform="matrix(1.1457 -1.1302 1.1302 1.1457 350.2524 129.379)" style="overflow:visible;enable-background:new    ;"/>
<use xlink:href="#Nouveau_symbole"  width="20.7" height="12.2" x="-10.4" y="-6.1" transform="matrix(0.6809 1.4582 -1.4582 0.6809 352.7054 110.5532)" style="overflow:visible;enable-background:new    ;"/>
<use xlink:href="#Nouveau_symbole"  width="20.7" height="12.2" x="-10.4" y="-6.1" transform="matrix(1.4456 0.7072 -0.7072 1.4456 86.7628 516.4218)" style="overflow:visible;enable-background:new    ;"/>
<use xlink:href="#Nouveau_symbole"  width="20.7" height="12.2" x="-10.4" y="-6.1" transform="matrix(1.1694 1.2768 -1.2768 1.1694 113.3068 555.6365)" style="overflow:visible;enable-background:new    ;"/>
<use xlink:href="#Nouveau_symbole"  width="20.7" height="12.2" x="-10.4" y="-6.1" transform="matrix(1.0471 1.8852 -1.8852 1.0471 153.1977 495.847)" style="overflow:visible;enable-background:new    ;"/>
<use xlink:href="#Nouveau_symbole"  width="20.7" height="12.2" x="-10.4" y="-6.1" transform="matrix(1.5771 0.3219 -0.3219 1.5771 180.7446 496.8964)" style="overflow:visible;enable-background:new    ;"/>
<use xlink:href="#Nouveau_symbole"  width="20.7" height="12.2" x="-10.4" y="-6.1" transform="matrix(1.9634 -1.165090e-02 1.165090e-02 1.9634 193.1971 505.8647)" style="overflow:visible;enable-background:new    ;"/>
<use xlink:href="#Nouveau_symbole"  width="20.7" height="12.2" x="-10.4" y="-6.1" transform="matrix(1.5078 0.7746 -0.7746 1.5078 140.3223 548.752)" style="overflow:visible;enable-background:new    ;"/>
<use xlink:href="#Nouveau_symbole"  width="20.7" height="12.2" x="-10.4" y="-6.1" transform="matrix(1.597 -0.1987 0.1987 1.597 117.9887 517.502)" style="overflow:visible;enable-background:new    ;"/>
<use xlink:href="#Nouveau_symbole"  width="20.7" height="12.2" x="-10.4" y="-6.1" transform="matrix(1.6077 7.103993e-02 -7.103993e-02 1.6077 163.919 508.9353)" style="overflow:visible;enable-background:new    ;"/>
<use xlink:href="#Nouveau_symbole"  width="20.7" height="12.2" x="-10.4" y="-6.1" transform="matrix(-0.1181 -1.8453 1.8453 -0.1181 147.0734 513.5713)" style="overflow:visible;enable-background:new    ;"/>
<use xlink:href="#Nouveau_symbole"  width="20.7" height="12.2" x="-10.4" y="-6.1" transform="matrix(0.9412 -1.3055 1.3055 0.9412 125.5313 491.2327)" style="overflow:visible;enable-background:new    ;"/>
<use xlink:href="#Nouveau_symbole"  width="20.7" height="12.2" x="-10.4" y="-6.1" transform="matrix(1.6735 0.3821 -0.3821 1.6735 125.5753 505.8221)" style="overflow:visible;enable-background:new    ;"/>
<use xlink:href="#Nouveau_symbole"  width="20.7" height="12.2" x="-10.4" y="-6.1" transform="matrix(1.2445 -1.0192 1.0192 1.2445 175.3208 548.3926)" style="overflow:visible;enable-background:new    ;"/>
<use xlink:href="#Nouveau_symbole"  width="20.7" height="12.2" x="-10.4" y="-6.1" transform="matrix(1.5366 0.4783 -0.4783 1.5366 249.5875 102.4335)" style="overflow:visible;enable-background:new    ;"/>
<use xlink:href="#Nouveau_symbole"  width="20.7" height="12.2" x="-10.4" y="-6.1" transform="matrix(1.6014 -0.1604 0.1604 1.6014 261.9429 113.5776)" style="overflow:visible;enable-background:new    ;"/>
<use xlink:href="#Nouveau_symbole"  width="20.7" height="12.2" x="-10.4" y="-6.1" transform="matrix(0.5572 -1.7705 1.7705 0.5572 322.2972 129.46)" style="overflow:visible;enable-background:new    ;"/>
<use xlink:href="#Nouveau_symbole"  width="20.7" height="12.2" x="-10.4" y="-6.1" transform="matrix(1.0866 1.1871 -1.1871 1.0866 284.5044 124.1895)" style="overflow:visible;enable-background:new    ;"/>
<use xlink:href="#Nouveau_symbole"  width="20.7" height="12.2" x="-10.4" y="-6.1" transform="matrix(1.4816 0.6283 -0.6283 1.4816 334.2376 120.4849)" style="overflow:visible;enable-background:new    ;"/>
<use xlink:href="#Nouveau_symbole"  width="20.7" height="12.2" x="-10.4" y="-6.1" transform="matrix(1.4162 1.0729 -1.0729 1.4162 284.5465 106.6713)" style="overflow:visible;enable-background:new    ;"/>
<use xlink:href="#Nouveau_symbole"  width="20.7" height="12.2" x="-10.4" y="-6.1" transform="matrix(1.6093 6.437330e-02 -6.437330e-02 1.6093 303.8267 124.272)" style="overflow:visible;enable-background:new    ;"/>
<use xlink:href="#Nouveau_symbole"  width="20.7" height="12.2" x="-10.4" y="-6.1" transform="matrix(1.6093 -3.089695e-03 3.089695e-03 1.6093 514.4819 437.8763)" style="overflow:visible;enable-background:new    ;"/>
<use xlink:href="#Nouveau_symbole"  width="20.7" height="12.2" x="-10.4" y="-6.1" transform="matrix(1.6093 0 0 1.6093 529.1497 465.0984)" style="overflow:visible;enable-background:new    ;"/>
<use xlink:href="#Nouveau_symbole"  width="20.7" height="12.2" x="-10.4" y="-6.1" transform="matrix(1.2595 1.0018 -1.0018 1.2595 553.7889 461.6407)" style="overflow:visible;enable-background:new    ;"/>
<use xlink:href="#Nouveau_symbole"  width="20.7" height="12.2" x="-10.4" y="-6.1" transform="matrix(1.4817 0.628 -0.628 1.4817 576.1292 449.1288)" style="overflow:visible;enable-background:new    ;"/>
<use xlink:href="#Nouveau_symbole"  width="20.7" height="12.2" x="-10.4" y="-6.1" transform="matrix(1.5664 -0.3755 0.3755 1.5664 613.0998 418.7038)" style="overflow:visible;enable-background:new    ;"/>
<use xlink:href="#Nouveau_symbole"  width="20.7" height="12.2" x="-10.4" y="-6.1" transform="matrix(1.7995 0.6067 -0.6067 1.7995 566.7977 398.916)" style="overflow:visible;enable-background:new    ;"/>
<use xlink:href="#Nouveau_symbole"  width="20.7" height="12.2" x="-10.4" y="-6.1" transform="matrix(1.8156 0.4342 -0.4342 1.8156 596.2156 390.5868)" style="overflow:visible;enable-background:new    ;"/>
<use xlink:href="#Nouveau_symbole"  width="20.7" height="12.2" x="-10.4" y="-6.1" transform="matrix(1.7595 0.5686 -0.5686 1.7595 616.5834 405.6275)" style="overflow:visible;enable-background:new    ;"/>
<use xlink:href="#Nouveau_symbole"  width="20.7" height="12.2" x="-10.4" y="-6.1" transform="matrix(1.9167 0.725 -0.725 1.9167 552.3845 434.0002)" style="overflow:visible;enable-background:new    ;"/>
<use xlink:href="#Nouveau_symbole"  width="20.7" height="12.2" x="-10.4" y="-6.1" transform="matrix(1.6523 0 0 1.6523 544.6279 449.1914)" style="overflow:visible;enable-background:new    ;"/>
<use xlink:href="#Nouveau_symbole"  width="20.7" height="12.2" x="-10.4" y="-6.1" transform="matrix(2.316 0.3268 -0.3268 2.316 571.709 412.3858)" style="overflow:visible;enable-background:new    ;"/>
<use xlink:href="#Nouveau_symbole"  width="20.7" height="12.2" x="-10.4" y="-6.1" transform="matrix(1.6091 2.892924e-02 -2.892924e-02 1.6091 588.474 433.2039)" style="overflow:visible;enable-background:new    ;"/>
<use xlink:href="#Nouveau_symbole"  width="20.7" height="12.2" x="-10.4" y="-6.1" transform="matrix(0.5036 -1.8421 1.8421 0.5036 601.3792 412.9664)" style="overflow:visible;enable-background:new    ;"/>
<path class="st7" d="M163.2,108.1c-18.9,10.1-34.5,63-28.4,93.5c2.4,12.2,22.7,4.9,39.8,6.5s73,12.2,103,9.7s56.8,4,86.8,0.4
	c30-3.6,91.7-10.1,127.4-2.8s35.7-17,33.3-24.3c-2.4-7.3-8.1-21.6-8.1-37.6s1.6-32.2-3.2-40.3c-4.9-8.1-18.7,11.1-40.6,14
	c-21.9,3-56.8,6.2-105.5,5.4c-48.7-0.8-103,0.5-126.6-5.4s-52.7-11.2-61.7-13.6C170.5,111.1,168.8,105.1,163.2,108.1z"/>
<path class="st4" d="M420.9,148.1c5.4-0.3,14.3-0.5,18.7-4.3c4.3-3.8,10.5-7.8,20.5-6.8c10,1.1,13-3.2,19.7-2.4
	c6.8,0.8,13-3.2,16.8-4.1c3.8-0.9,0.3,9.7,0,20c-0.1,9.5,0.5,19,1.7,28.4c1,8.6,3.1,12.4,1.5,18.7s-1.4,9.5-10,5.1
	c-8.7-4.3-12.4,0.8-16.8,0.8c-4.3,0-11.9-1.6-16.2-1.6s-8.1,0.5-13,0.5s-7.3-2.2-11.9-1.6c-4.6,0.5-12.2,2.7-14.9,1.6
	c-2.7-1.1,3.8-7.6,3.2-14s1.6-10.5,2.4-14.6s-4.6-7.9-4.9-10.5C417.7,160.8,420.6,155.9,420.9,148.1z"/>
</svg>
