<?xml version="1.0" encoding="utf-8"?>
<!-- Generator: Adobe Illustrator 21.0.2, SVG Export Plug-In . SVG Version: 6.00 Build 0)  -->
<svg version="1.1" id="Calque_2" xmlns="http://www.w3.org/2000/svg" xmlns:xlink="http://www.w3.org/1999/xlink" x="0px" y="0px"
	 viewBox="0 0 800 614" style="enable-background:new 0 0 800 614;" xml:space="preserve">
<style type="text/css">
	.st0{fill:#B9DCF0;}
	.st1{fill:none;stroke:#B9DCF0;stroke-width:6;stroke-linecap:round;stroke-miterlimit:10;}
	.st2{fill:#B2B2B2;}
	.st3{fill:#FFFFFF;}
	.st4{opacity:0.5;fill:#DEEFF8;enable-background:new    ;}
	.st5{fill:#DADADA;}
	.st6{fill:#9D9D9C;}
	.st7{fill:#EDEDED;}
	.st8{fill:#C6C6C6;}
	.st9{fill:#DDC07E;}
	.st10{fill:#D3AD58;}
	.st11{fill:#E4CD99;}
</style>
<title>extra</title>
<g>
	<path class="st0" d="M331,109.2h-77.1c0,0,2.3,58.8-29.6,113.3S155.7,397,253.1,452.3h141.7c97.3-55.3,60.7-175.2,28.8-229.7
		S394,109.2,394,109.2H331z"/>
	<line class="st1" x1="253.1" y1="456.6" x2="394.8" y2="456.6"/>
	<polygon class="st2" points="258.5,103.6 258.5,91.7 388.3,92.5 388.3,103.6 	"/>
	<path class="st3" d="M243,208.5c-13.5,30.1-48.8,98.7-37.4,150.6c11.4,51.9,53,82,53,82h129.8c34.3-32.2,43.6-48.8,49.8-82
		s-10.8-95-38.8-142.8c0,0-13.4,21.8-43.5,19.2s-50.6-17.7-68.3-33.3C269.9,186.6,243,208.5,243,208.5z"/>
	<path class="st4" d="M350.9,124.3h27c0,0,4.2,84.7,21.8,116.2s16.6,66.8,7.3,97.9c-4.2-46.8-31.2-94.4-43.6-126.1
		C350.9,180.5,350.9,124.3,350.9,124.3z"/>
	<path class="st4" d="M292.7,124.3H272c0,0-16.6,66.1-28,94.4c-11.4,28.3-18.7,43.9-18.7,54.3c16.6-33.2,31.2-59.2,47.8-90.9
		C289.6,150.3,292.7,124.3,292.7,124.3z"/>
	<path class="st4" d="M343.7,250.6c15.6,54.5,10.4,106.6,12.5,137.7C371.7,346.6,375.9,286.2,343.7,250.6z"/>
	<path class="st4" d="M308.4,266.1c-13.5,34.8-19.7,80.5-15.6,107.5C281.4,331,283.4,299.9,308.4,266.1z"/>
	<path class="st4" d="M254.1,258.3c-5.9,18.7-23.6,73.7-14.3,115.3c-12.5-30.1-10.8-87.4,4.4-115.3
		C247.4,252.6,256.7,250.3,254.1,258.3z"/>
	<path class="st5" d="M258.5,91.7c14.5-53,115.8-55.3,129.8,0.7"/>
	<ellipse class="st6" cx="321.6" cy="59.1" rx="7.1" ry="3.7"/>
	<ellipse class="st6" cx="336.5" cy="68.2" rx="7.1" ry="3.7"/>
	<ellipse class="st6" cx="308.4" cy="67.3" rx="7.1" ry="3.7"/>
	<path class="st6" d="M393.8,110.2H254.1c-2.2,0-3.9-1.7-3.9-3.9s1.7-3.9,3.9-3.9h139.7c2.2,0,3.9,1.7,3.9,3.9
		S395.9,110.2,393.8,110.2z"/>
</g>
<g>
	<polygon class="st3" points="451.9,126.9 632.6,126.9 684.5,462.3 439.2,462.3 483.1,153.9 	"/>
	<path class="st7" d="M575.5,138.4H617l34.3,230.5l-27,15.6l-27.7-215.5C596.7,168.9,593.9,149.3,575.5,138.4z"/>
	<path class="st3" d="M638.8,167c16.1-28.6,161.5-33.8,23.8,153.8L638.8,167z M659.5,300.9c93.1-133.7,8.1-152.9-17.9-111.3
		L659.5,300.9z"/>
	<path class="st7" d="M642.4,170l1.8,7.3c7.9-12.2,21.3-19.7,35.8-20C661.3,153.5,643.4,163.8,642.4,170z"/>
	<path class="st3" d="M450.4,392c-4.9,2.1-4.9,6.2-7.3,8.6c-2.3,2.3-5.2,1.8-9.9,6c-4.7,4.2-10.9,8-10.9,10.9c0,2.9,1.3,3.6-1.8,7
		s-6,5.2-7.3,7.8c-1.3,2.6,0.8,6,0,8.6c-0.8,2.6-4.9,3.8-5.2,6.1c-0.3,2.2-0.8,5.3-2.1,7.2s-1.6,4.2-4.4,7
		c-2.9,2.9-2.9,8.6-5.5,11.9s-5.4,9-4.3,12.2c1.1,3.2,11,10.2,11,10.2l51.4-2.1l58.4-35.6l2.5-12.1c0,0-10.3-6.4-14.8-7
		c-4.5-0.7-1.7-4.8-8.4-9c-6.7-4.2-10.6-7-12.7-10.9c-2.1-3.9-11.6-6.4-14.2-8.6c-2.7-2.3-2.7-4.1-6.3-6.7
		C455,400.8,450.4,392,450.4,392z"/>
	<path class="st7" d="M446.5,402.9c-1.3,3.6-2.6,6.7-7.3,9.3c-4.7,2.6-8.3,3.6-8.6,7s-2.6,6.2-6,10.4c-3.4,4.2,0,7.8-3.4,11.7
		c-3.4,3.9-7.5,9.9-8.8,14.5c-1.3,4.7-7.8,12.7-8,17.4c-0.2,4.7,4.9-7,8.8-9.3c3.9-2.3,9.3-4.9,10.6-11.4s10.9-6,15.1-11.7
		c4.2-5.7-0.3-10.9,4.2-14.8c4.4-3.9,6.2-1,8.8-3.6c2.6-2.6-3.1-4.4-1.8-8.6C451.4,409.6,446.5,402.9,446.5,402.9z"/>
	<path class="st8" d="M387.8,483.4c45.9,22.2,115.6-14.4,127.3-37.7c-5.5-4.3-8.6-4.7-14.8-7c14-3.5,151.5-43.2,171.6-51.8
		c20.1-8.6,20.9,14.8-2.1,28c-23,13.2-58.5,25.3-87.7,28.8s-59.6,8.6-73.2,22.2c-13.6,13.6-43.6,42.1-67,42.8
		S395.6,506.3,387.8,483.4z"/>
</g>
<g>
	<path class="st9" d="M307.1,553.9c2.3,6.6,4.1,7.4,9.4,7s8.9,1.7,11.6,0.1c2.7-1.6-1.9-9-1.9-9l-9.7-4.8L307.1,553.9z"/>
	<path class="st9" d="M289.1,574.2v5.5c2.3,0.8,4.7,1.4,7.2,1.6c3.2,0.4,6.4-1,8.4-3.5c1.7-1.9-0.2-6.8-0.2-6.8L289.1,574.2z"/>
	<path class="st9" d="M319.5,479.7c35.5-18.6,56,24.2,7.2,14.5c9,5.9-1.3,19.7-16.2,12.6c9.2,8.2-5.7,18.4-17.7,10.9
		c10.2,8.6-1.2,19.3-12.1,10.7c6.9,9.5-8.2,16.3-15.6,8.9c14,17.2-20.7,31.2-19.1,2.3c-10.2,7.7-22.2,3-15.8-5.2
		c-10,7.2-19.6,1.5-14.8-4.9c-10.4,6-19.6-2-14.7-7.1c-7.3,3.8-20.6-0.3-15.8-7.4c-8,2.8-21.9-2.3-13.8-9.2
		c-11.4,1.9-21.8-1.9-15-9.7c-9.5,3.9-33.6-9.7-19.8-13c-30.2,7.1-49-25.6-5.5-19.1c-8.2-8.8,2.7-19.4,14.7-12
		c-5.2-6.4,5.4-15.1,15.7-8.3c-3.6-7,5.7-10.4,12.4-5.6c-1.1-5.5,6.9-9.5,13.6-4.3c-3.2-12.8,18.9-23.3,19.4,0
		c7.5-7.4,16.3-3.8,12.4,3.2c6.3-4.9,18.2-3.1,13.5,4.9c6.2-4,18-2.1,15.1,6.2c7.7-5.6,23-2,16.9,7c8.2-6.2,21.7-4.5,16,4.1
		c8.3-4.7,23.8-1.4,15.9,10.3C303.2,463.9,330.7,461.7,319.5,479.7z"/>
	<circle class="st10" cx="289.1" cy="492.1" r="4"/>
	<circle class="st10" cx="256.1" cy="512.7" r="4"/>
	<path class="st11" d="M84.9,504.4c-36-16.5-51,35-5.3,17.5c-8,8,3.5,22.3,16.9,12.2c-7.9,10.6,7.5,20.2,18.2,10.1
		c-8.8,11.2,3.3,21.7,12.7,10.6c-5.5,11.7,9.7,17.5,15.9,8c-11.5,21.4,23.4,32.9,18.6,0c10.6,7.4,21.6,0.5,14.5-8
		c10.4,6.9,18.9-0.8,13.6-7.6c10.6,5.5,18.6-4.9,13.3-10.1c7.4,3.3,19.7-3.1,14.3-10.5c8,2.1,20.7-5.6,12.2-12.3
		c11.2,0.7,20.7-5.1,13.3-13.1c9.6,3.1,31.1-15.6,17.5-17.4c29.7,4.1,44.1-35.7,3.2-22.5c6.9-11.2-4.8-21.7-15.4-11.7
		c4.2-8-6.9-16.5-15.9-7.4c2.7-8.5-6.6-11.1-12.5-4.8c0.5-6.5-7.7-9.9-13.5-3.1c1.6-15-20.7-24-18.6,2.6c-8-7.4-16-2.1-11.4,5.3
		c-6.6-4.8-17.7-1.1-12.4,7.4c-6.4-3.7-17.5,0-13.8,9c-8-5.3-22.3,0.7-15.4,10.2c-8.5-5.9-21.2-2.2-14.9,6.8
		c-8.5-4.2-22.9,1.6-14.1,13.8C98.7,484.2,72.1,485.3,84.9,504.4z"/>
	<circle class="st9" cx="131.9" cy="502.5" r="4"/>
	<circle class="st9" cx="161.6" cy="530.2" r="4"/>
	<circle class="st9" cx="167.8" cy="474.8" r="2.3"/>
	<circle class="st9" cx="197.3" cy="506.5" r="2.3"/>
	<circle class="st9" cx="193.3" cy="457.2" r="1.7"/>
	<circle class="st9" cx="228.6" cy="477" r="1.7"/>
	<path class="st11" d="M314.1,543c-1.7,4-4.1,7.7-7,10.9c-2.3,2.3,5.5-2.7,9.3-2.3c3.9,0.4,8.6,2.3,9.7,0.4c1.2-1.9-2.7-4.3-7.4-6.6
		L314.1,543z"/>
	<path class="st11" d="M294.8,566.4c-2.7,3.1-9.7,7.8-5.7,7.8c4,0,7.1,2.7,9.4,0c2.3-2.7,3.9-1.1,5.8-3.3
		C306.4,568.7,294.8,566.4,294.8,566.4z"/>
</g>
</svg>
