<svg id="Calque_2" data-name="Calque 2" xmlns="http://www.w3.org/2000/svg" width="800" height="614" viewBox="0 0 800 614">
  <defs>
    <style>
      .cls-1 {
        fill: #dedc97;
      }

      .cls-2 {
        fill: #8ac5e6;
      }

      .cls-3 {
        fill: #c6c6c6;
      }

      .cls-4 {
        fill: #b2b2b2;
      }

      .cls-5 {
        fill: #fff;
      }

      .cls-6 {
        fill: #3c3c3b;
      }

      .cls-7 {
        fill: #95c11f;
      }

      .cls-8 {
        fill: none;
        stroke: #3c3c3b;
        stroke-linecap: round;
        stroke-miterlimit: 10;
        stroke-width: 9px;
      }

      .cls-9 {
        fill: #1d71b8;
      }

      .cls-10 {
        fill: #56abdb;
      }

      .cls-11 {
        fill: #b9dcf0;
      }

      .cls-12 {
        fill: #878787;
      }

      .cls-13 {
        fill: #ffed00;
      }

      .cls-14 {
        fill: #f9b233;
      }

      .cls-15 {
        fill: #1d1d1b;
      }
    </style>
  </defs>
  <title>horloges</title>
  <rect class="cls-1" x="-17.74" y="-13.06" width="856.42" height="647.78"/>
  <g>
    <circle class="cls-2" cx="458.01" cy="149.21" r="82.7"/>
    <circle class="cls-3" cx="452.39" cy="192.55" r="16.08" transform="translate(154.84 583.96) rotate(-75.81)"/>
    <g>
      <line class="cls-4" x1="454.86" y1="182.81" x2="458.47" y2="168.52"/>
      <rect class="cls-3" x="449.29" y="174.66" width="14.74" height="2.01" transform="translate(174.44 575.35) rotate(-75.81)"/>
    </g>
    <path class="cls-5" d="M458.16,80.23a69,69,0,1,0,69,69A69,69,0,0,0,458.16,80.23Zm19.87,112a19.87,19.87,0,1,1-19.87-19.87A19.87,19.87,0,0,1,478,192.19Z"/>
    <rect class="cls-6" x="457.52" y="102.5" width="1.28" height="62.21"/>
    <path class="cls-6" d="M458.16,102.51c1.12,2.65,3.85.64,3.53-1.6s-3.53-5.45-3.53-11.22c0,5.77-3.21,9-3.53,11.22S456.88,105.16,458.16,102.51Z"/>
    <path class="cls-6" d="M433,159.37c1.94-2.12-1-3.77-2.93-2.54s-3.49,5.48-8.74,7.88c5.25-2.4,9.5-.82,11.67-1.46S436,159.44,433,159.37Z"/>
    <polygon class="cls-6" points="431.49 161.15 430.96 159.98 466.55 143.93 467.08 145.09 431.49 161.15"/>
    <circle class="cls-6" cx="466.82" cy="144.51" r="1.66"/>
    <circle class="cls-6" cx="458.16" cy="164.71" r="1.66"/>
  </g>
  <g>
    <circle class="cls-7" cx="248.28" cy="307" r="139"/>
    <circle class="cls-5" cx="248.28" cy="307" r="125"/>
    <line class="cls-8" x1="248.28" y1="314.53" x2="248.28" y2="236.86"/>
    <line class="cls-8" x1="310.15" y1="364.54" x2="242.68" y2="297.07"/>
    <path d="M303.08,228a1.79,1.79,0,0,1-.22,1.14,1.41,1.41,0,0,1-1.21.44,1.39,1.39,0,0,1-1.2-.44,1.77,1.77,0,0,1-.22-1.14v-7.1l-.83.39a1.36,1.36,0,0,1-.61.17c-.74,0-1.18-.85-1.18-1.49s.5-1,1-1.18l2.32-1.07a2.61,2.61,0,0,1,1.1-.29,1,1,0,0,1,.79.29,1.55,1.55,0,0,1,.26,1.07Z"/>
    <path d="M342.72,263.8c2-2.25,3.22-2.82,3.22-4a1.11,1.11,0,0,0-1.25-1.14,2.33,2.33,0,0,0-1.55.68,1.44,1.44,0,0,1-1,.44,1.39,1.39,0,0,1-1.36-1.32c0-.66.63-1.29,1.38-1.71a5.86,5.86,0,0,1,2.8-.7c2,0,3.92,1,3.92,3.35,0,2.74-2.63,3.74-4.45,6.16h3.4a1.57,1.57,0,0,1,1,.22,1.26,1.26,0,0,1,.42,1.09,1.27,1.27,0,0,1-.42,1.1,1.57,1.57,0,0,1-1,.2h-5.61c-.68,0-1.42-.15-1.42-1.09S341.64,265,342.72,263.8Z"/>
    <path d="M354.17,305.44c1.29-.09,1.88-.5,1.88-1.31a1,1,0,0,0-1.18-1.09,2.36,2.36,0,0,0-1.34.46,1.8,1.8,0,0,1-1,.4,1.21,1.21,0,0,1-1.18-1.21,1.73,1.73,0,0,1,1-1.42,5.54,5.54,0,0,1,2.74-.66c2,0,3.85.87,3.85,2.94a2.74,2.74,0,0,1-1.93,2.65,3,3,0,0,1,2.45,3c0,2.59-2.52,3.72-4.88,3.72a6.26,6.26,0,0,1-2.36-.42c-.72-.29-1.18-.7-1.18-1.33a1.33,1.33,0,0,1,1.22-1.4c.74,0,1.2.7,2.48.7,1.09,0,1.78-.52,1.78-1.33,0-.59-.39-1-1-1.16a6.4,6.4,0,0,0-1.62-.13c-.7,0-1.18-.28-1.18-1.23C352.72,305.42,353.47,305.49,354.17,305.44Z"/>
    <path d="M344.78,356.84c.61,0,1.07.29,1.07,1.18s-.46,1.16-1.07,1.16h-.88v1.07a1.87,1.87,0,0,1-.2,1.12,1.28,1.28,0,0,1-1.14.44,1.26,1.26,0,0,1-1.12-.44,1.86,1.86,0,0,1-.22-1.12v-1.07H337.3c-.87,0-1.49-.42-1.49-1.31a3.15,3.15,0,0,1,.77-1.78l3.59-5.13a2.31,2.31,0,0,1,2.19-1.25c1.09,0,1.55.4,1.55,1.18v6Zm-3.57,0v-3.63l-2.5,3.63Z"/>
    <path d="M309.78,390.89a5.54,5.54,0,0,1,.83-.06c2.26,0,4.09,1.18,4.09,3.59,0,2.78-2.43,4-4.93,4a6,6,0,0,1-2-.31c-.57-.2-1.23-.55-1.23-1.32,0-.57.37-1.4,1.16-1.4s1.25.57,2.37.57,1.67-.48,1.67-1.45S311.16,393,310,393c-.55,0-1.34.13-1.8.13-1.21,0-1.23-.9-1.18-1.67l.31-3.9c.06-.68.17-1.23,1.23-1.23h4a2,2,0,0,1,1.12.18,1.47,1.47,0,0,1,0,2.1,2,2,0,0,1-1.12.18h-2.61Z"/>
    <path d="M250.17,408.7a1.31,1.31,0,0,1,1.29,1.4c0,.88-.88,1-1.91,1.36-1.8.64-2.78,1.66-3.05,3a2.68,2.68,0,0,1,2.15-.81,3.58,3.58,0,0,1,3.77,3.57c0,2.21-1.84,4-4.51,4a4.34,4.34,0,0,1-3-1.09,4.82,4.82,0,0,1-1.38-3.77A7.61,7.61,0,0,1,250.17,408.7ZM248,418.91a1.48,1.48,0,0,0,1.53-1.58,1.45,1.45,0,0,0-1.55-1.55,1.4,1.4,0,0,0-1.51,1.49A1.51,1.51,0,0,0,248,418.91Z"/>
    <path d="M184.39,389a1.87,1.87,0,0,1-1.12-.2,1.23,1.23,0,0,1-.44-1.09,1.25,1.25,0,0,1,.44-1.1,1.87,1.87,0,0,1,1.12-.2h5.72a1.71,1.71,0,0,1,1,.2.86.86,0,0,1,.33.77,3.9,3.9,0,0,1-.41,1.44l-3.24,8.13c-.42,1-.83,1.44-1.9,1.44s-1.32-.29-1.32-.83a2.29,2.29,0,0,1,.22-.85l3.33-7.71Z"/>
    <path d="M154.8,345.71c2.59,0,4,1.45,4,3.28a2.78,2.78,0,0,1-1.75,2.63,3.26,3.26,0,0,1,2.15,2.94c0,1.82-1.44,3.57-4.58,3.57s-4.42-1.67-4.42-3.42a3.35,3.35,0,0,1,2.17-3,2.79,2.79,0,0,1-1.75-2.61C150.65,347.23,152.14,345.71,154.8,345.71Zm-.07,10.19a1.48,1.48,0,0,0,1.64-1.51,1.65,1.65,0,0,0-3.29,0A1.49,1.49,0,0,0,154.73,355.9Zm0-5.35A1.28,1.28,0,0,0,156,349.2a1.18,1.18,0,0,0-1.31-1.25,1.2,1.2,0,0,0-1.32,1.25A1.28,1.28,0,0,0,154.73,350.55Z"/>
    <path d="M140.8,313a1.19,1.19,0,0,1-1.33-1.29c0-.92.66-1,1.58-1.31,1.71-.53,3.15-1.51,3.42-3.28a2.53,2.53,0,0,1-2.23.9,3.56,3.56,0,0,1-3.75-3.59c0-2.19,1.77-3.92,4.43-3.92a4.29,4.29,0,0,1,3.17,1.2,5.29,5.29,0,0,1,1.31,3.88A7.13,7.13,0,0,1,140.8,313Zm2.13-10.19a1.45,1.45,0,0,0-1.51,1.56,1.52,1.52,0,0,0,3,0A1.49,1.49,0,0,0,142.93,302.81Z"/>
    <g>
      <path d="M153.53,266.63a1.79,1.79,0,0,1-.22,1.14,1.41,1.41,0,0,1-1.21.44,1.39,1.39,0,0,1-1.2-.44,1.77,1.77,0,0,1-.22-1.14v-7.1l-.83.39a1.36,1.36,0,0,1-.61.17c-.74,0-1.18-.85-1.18-1.49s.5-1,1-1.18l2.32-1.07a2.61,2.61,0,0,1,1.1-.29,1,1,0,0,1,.79.29,1.55,1.55,0,0,1,.26,1.07Z"/>
      <path d="M160.73,255.94c3.2,0,4.58,2.5,4.58,6.15,0,3.83-1.51,6.27-4.71,6.27s-4.58-2.48-4.58-6.13C156,258.41,157.55,255.94,160.73,255.94Zm-.06,9.92c1.56,0,1.88-1.77,1.88-3.7s-.29-3.7-1.9-3.7-1.88,1.77-1.88,3.7S159.07,265.86,160.68,265.86Z"/>
    </g>
    <g>
      <path d="M185.38,228a1.79,1.79,0,0,1-.22,1.14,1.41,1.41,0,0,1-1.21.44,1.39,1.39,0,0,1-1.2-.44,1.77,1.77,0,0,1-.22-1.14v-7.1l-.83.39a1.36,1.36,0,0,1-.61.17c-.74,0-1.18-.85-1.18-1.49s.5-1,1-1.18l2.32-1.07a2.61,2.61,0,0,1,1.1-.29,1,1,0,0,1,.79.29,1.55,1.55,0,0,1,.26,1.07Z"/>
      <path d="M192.69,228a1.79,1.79,0,0,1-.22,1.14,1.41,1.41,0,0,1-1.21.44,1.39,1.39,0,0,1-1.2-.44,1.77,1.77,0,0,1-.22-1.14v-7.1l-.83.39a1.36,1.36,0,0,1-.61.17c-.74,0-1.18-.85-1.18-1.49s.5-1,1-1.18l2.32-1.07a2.61,2.61,0,0,1,1.1-.29,1,1,0,0,1,.79.29,1.55,1.55,0,0,1,.26,1.07Z"/>
    </g>
    <g>
      <path d="M245.59,209.85a1.79,1.79,0,0,1-.22,1.14,1.41,1.41,0,0,1-1.21.44A1.39,1.39,0,0,1,243,211a1.77,1.77,0,0,1-.22-1.14v-7.1l-.83.39a1.36,1.36,0,0,1-.61.17c-.74,0-1.18-.85-1.18-1.49s.5-1,1-1.18l2.32-1.07a2.61,2.61,0,0,1,1.1-.29,1,1,0,0,1,.79.29,1.55,1.55,0,0,1,.26,1.07Z"/>
      <path d="M249.85,206.92c2-2.25,3.22-2.82,3.22-4a1.11,1.11,0,0,0-1.25-1.14,2.33,2.33,0,0,0-1.55.68,1.44,1.44,0,0,1-1,.44,1.39,1.39,0,0,1-1.36-1.32c0-.66.63-1.29,1.38-1.71a5.86,5.86,0,0,1,2.8-.7c2,0,3.92,1,3.92,3.35,0,2.74-2.63,3.74-4.45,6.16H255a1.57,1.57,0,0,1,1,.22,1.26,1.26,0,0,1,.42,1.09,1.27,1.27,0,0,1-.42,1.1,1.57,1.57,0,0,1-1,.2h-5.61c-.68,0-1.42-.15-1.42-1.09S248.76,208.14,249.85,206.92Z"/>
    </g>
  </g>
  <g>
    <rect class="cls-9" x="556.14" y="470.14" width="3.52" height="41"/>
    <polygon class="cls-10" points="639.97 330.07 645 325.04 558.16 238.2 471.31 325.04 476.25 329.99 558.16 248.34 639.97 330.07"/>
    <polygon class="cls-2" points="491.16 315.12 491.16 477.75 622.24 477.75 622.24 312.36 558.16 248.34 491.16 315.12"/>
    <rect class="cls-6" x="539.87" y="307.38" width="36.73" height="36.73"/>
    <polygon class="cls-11" points="539.87 307.38 528.15 311.55 528.15 349.75 539.87 344.11 539.87 307.38"/>
    <polygon class="cls-11" points="576.6 307.38 589 314.25 589 349.75 576.6 344.11 576.6 307.38"/>
    <path class="cls-12" d="M587,362l-3.82-12.54-6.71,9.06-5.12-13.11-7.07,10.37-6.89-14.23-2.63,3.18-1-.86,3-3.65-3.12-6.44,1.22-.59,2.85,5.89,8.59-10.35,5.4,13.82,7.47-10.94,4.54,14.9,7.93-10.72,6.34,17.53Zm-2.82-13.89,3.54,11.6,8.64-6.86-5.15-14.24Zm-11.91-4,4.57,11.69,5.85-7.9-4-13.17Zm-13.94-3.66,6.14,12.68,6.28-9.2-4.9-12.55Z"/>
    <path class="cls-13" d="M623.48,351.95c0,5.75-3.55,8.79-7.27,9s-6.28-.56-6.93-1.52a8.47,8.47,0,0,0,3-8.28c1.18,5.58-9.13,12.85-16.73,11.94s-3.71-5.76-.51-5.18c-2.7-2.37,0-4.9,3.38-3-2.37-2.7.68-4.23,3-3.38-2-3.21,1.69-5.41,3.72-4.23,1.69-2.7,7.77-5.92,12.17-3.1"/>
    <circle class="cls-13" cx="622.24" cy="346.58" r="5.49"/>
    <polygon class="cls-14" points="627.73 346.58 630.74 345.49 627.43 348.36 630.74 350.93 626.25 350.32 627.73 346.58"/>
    <path class="cls-15" d="M624.83,347.09a.51.51,0,0,1-.51-.51v-2.47a.51.51,0,0,1,1,0v2.47A.51.51,0,0,1,624.83,347.09Z"/>
    <polygon class="cls-13" points="607.33 345.12 604.72 328.56 597.11 329.3 602.22 347.4 606.58 349.75 607.33 345.12"/>
    <circle class="cls-9" cx="558.16" cy="413.75" r="43.59"/>
    <circle class="cls-5" cx="558.24" cy="413.75" r="36.36"/>
    <rect class="cls-6" x="557.9" y="389.13" width="0.68" height="32.79"/>
    <path class="cls-6" d="M558.24,389.13c.59,1.39,2,.34,1.86-.85s-1.86-2.87-1.86-5.92c0,3-1.69,4.73-1.86,5.92S557.56,390.53,558.24,389.13Z"/>
    <path class="cls-6" d="M545,419.1c1-1.12-.54-2-1.54-1.34s-1.84,2.89-4.61,4.15c2.77-1.27,5-.43,6.15-.77S546.55,419.14,545,419.1Z"/>
    <polygon class="cls-6" points="544.18 420.04 543.9 419.42 562.66 410.96 562.94 411.58 544.18 420.04"/>
    <circle class="cls-6" cx="562.8" cy="411.27" r="0.87"/>
    <circle class="cls-6" cx="558.24" cy="421.92" r="0.87"/>
    <circle class="cls-10" cx="558.41" cy="523.82" r="24.39"/>
  </g>
</svg>
