<?xml version="1.0" encoding="utf-8"?>
<!-- Generator: Adobe Illustrator 21.0.2, SVG Export Plug-In . SVG Version: 6.00 Build 0)  -->
<svg version="1.1" id="Calque_2" xmlns="http://www.w3.org/2000/svg" xmlns:xlink="http://www.w3.org/1999/xlink" x="0px" y="0px"
	 viewBox="0 0 800 614" style="enable-background:new 0 0 800 614;" xml:space="preserve">
<style type="text/css">
	.st0{fill:#8AC5E6;}
	.st1{fill:#C6C6C6;}
	.st2{fill:none;}
	.st3{fill:#FFFFFF;}
	.st4{fill:#3C3C3B;}
	.st5{fill:#95C11F;}
	.st6{fill:none;stroke:#3C3C3B;stroke-width:9;stroke-linecap:round;stroke-miterlimit:10;}
	.st7{fill:#1D71B8;}
	.st8{fill:#56ABDB;}
	.st9{fill:#B9DCF0;}
	.st10{fill:#878787;}
	.st11{fill:#FFED00;}
	.st12{fill:#F9B233;}
	.st13{fill:#1D1D1B;}
</style>
<title>horloges-01</title>
<g>
	<circle class="st0" cx="470.6" cy="142.7" r="90.7"/>
	
		<ellipse transform="matrix(0.2451 -0.9695 0.9695 0.2451 166.2222 593.912)" class="st1" cx="464.5" cy="190.2" rx="17.6" ry="17.6"/>
	<g>
		<line class="st2" x1="467.2" y1="179.5" x2="471.1" y2="163.8"/>
		
			<rect x="461.1" y="170.6" transform="matrix(0.2451 -0.9695 0.9695 0.2451 187.7222 584.4768)" class="st1" width="16.2" height="2.2"/>
	</g>
	<path class="st3" d="M470.8,67c-41.8,0-75.7,33.9-75.7,75.7s33.9,75.7,75.7,75.7c41.8,0,75.7-33.9,75.7-75.7S512.6,67,470.8,67
		L470.8,67z M492.6,189.8c0,12-9.8,21.8-21.8,21.8c-12,0-21.8-9.8-21.8-21.8c0-12,9.8-21.8,21.8-21.8l0,0
		C482.8,168.1,492.5,177.8,492.6,189.8L492.6,189.8z"/>
	<rect x="470.1" y="91.4" class="st4" width="1.4" height="68.2"/>
	<path class="st4" d="M470.8,91.4c1.2,2.9,4.2,0.7,3.9-1.8s-3.9-6-3.9-12.3c0,6.3-3.5,9.9-3.9,12.3
		C466.6,92.1,469.4,94.3,470.8,91.4z"/>
	<path class="st4" d="M443.2,153.8c2.1-2.3-1.1-4.1-3.2-2.8c-2.1,1.3-3.8,6-9.6,8.6c5.8-2.6,10.4-0.9,12.8-1.6
		C445.6,157.3,446.5,153.9,443.2,153.8z"/>
	<polygon class="st4" points="441.6,155.7 441,154.5 480,136.9 480.6,138.1 	"/>
	<circle class="st4" cx="480.3" cy="137.5" r="1.8"/>
	<circle class="st4" cx="470.8" cy="159.7" r="1.8"/>
</g>
<g>
	<circle class="st5" cx="240.6" cy="315.7" r="152.5"/>
	<circle class="st3" cx="240.6" cy="315.7" r="137.1"/>
	<line class="st6" x1="240.6" y1="324" x2="240.6" y2="238.8"/>
	<line class="st6" x1="308.5" y1="378.8" x2="234.5" y2="304.8"/>
	<path d="M300.7,229.1c0.1,0.4,0,0.9-0.2,1.3c-0.3,0.4-0.8,0.5-1.3,0.5c-0.5,0.1-1-0.1-1.3-0.5c-0.2-0.4-0.3-0.8-0.2-1.3v-7.8
		l-0.9,0.4c-0.2,0.1-0.4,0.2-0.7,0.2c-0.8,0-1.3-0.9-1.3-1.6s0.5-1.1,1.1-1.3l2.5-1.2c0.4-0.2,0.8-0.3,1.2-0.3
		c0.3,0,0.6,0.1,0.9,0.3c0.2,0.3,0.3,0.8,0.3,1.2L300.7,229.1z"/>
	<path d="M344.2,268.3c2.2-2.5,3.5-3.1,3.5-4.4c0-0.7-0.5-1.2-1.2-1.3c-0.1,0-0.1,0-0.2,0c-0.6,0-1.2,0.3-1.7,0.7
		c-0.3,0.3-0.7,0.5-1.1,0.5c-0.8,0-1.5-0.6-1.5-1.4c0-0.7,0.7-1.4,1.5-1.9c0.9-0.5,2-0.8,3.1-0.8c2.2,0,4.3,1.1,4.3,3.7
		c0,3-2.9,4.1-4.9,6.8h3.7c0.4,0,0.8,0,1.1,0.2c0.3,0.3,0.5,0.7,0.5,1.2c0.1,0.5-0.1,0.9-0.5,1.2c-0.3,0.2-0.7,0.3-1.1,0.2h-6.2
		c-0.7,0-1.6-0.2-1.6-1.2C342.1,270.9,343,269.7,344.2,268.3z"/>
	<path d="M356.7,314c1.4-0.1,2.1-0.5,2.1-1.4c0.1-0.6-0.4-1.1-1-1.2c-0.1,0-0.2,0-0.3,0c-0.5,0-1,0.2-1.5,0.5
		c-0.3,0.3-0.7,0.4-1.1,0.4c-0.7,0-1.3-0.6-1.3-1.3c0.1-0.7,0.5-1.3,1.1-1.6c0.9-0.5,2-0.7,3-0.7c2.2,0,4.2,1,4.2,3.2
		c0,1.3-0.8,2.5-2.1,2.9c1.6,0.3,2.7,1.7,2.7,3.3c0,2.8-2.8,4.1-5.4,4.1c-0.9,0-1.8-0.1-2.6-0.5c-0.8-0.3-1.3-0.8-1.3-1.5
		c0-0.8,0.5-1.5,1.3-1.5c0.8,0,1.3,0.8,2.7,0.8c1.2,0,2-0.6,2-1.5c0-0.6-0.4-1.1-1.1-1.3c-0.6-0.1-1.2-0.2-1.8-0.1
		c-0.8,0-1.3-0.3-1.3-1.3C355.2,314,356,314.1,356.7,314z"/>
	<path d="M346.4,370.4c0.7,0,1.2,0.3,1.2,1.3c0,1-0.5,1.3-1.2,1.3h-1v1.2c0.1,0.4,0,0.9-0.2,1.2c-0.3,0.4-0.8,0.5-1.3,0.5
		c-0.5,0.1-0.9-0.1-1.2-0.5c-0.2-0.4-0.3-0.8-0.2-1.2V373h-4.3c-1,0-1.6-0.5-1.6-1.4c0.1-0.7,0.4-1.4,0.8-2l3.9-5.6
		c0.5-0.9,1.4-1.4,2.4-1.4c1.2,0,1.7,0.4,1.7,1.3v6.6L346.4,370.4z M342.5,370.4v-4l-2.7,4H342.5z"/>
	<path d="M308.1,407.7c0.3,0,0.6-0.1,0.9-0.1c2.5,0,4.5,1.3,4.5,3.9c0,3-2.7,4.4-5.4,4.4c-0.7,0-1.5-0.1-2.2-0.3
		c-0.6-0.2-1.3-0.6-1.3-1.4c0-0.6,0.4-1.5,1.3-1.5s1.4,0.6,2.6,0.6s1.8-0.5,1.8-1.6s-0.6-1.7-1.9-1.7c-0.6,0-1.5,0.1-2,0.1
		c-1.3,0-1.3-1-1.3-1.8l0.3-4.3c0.1-0.7,0.2-1.3,1.3-1.3h4.4c0.4-0.1,0.8,0,1.2,0.2c0.6,0.6,0.6,1.6,0,2.3c0,0,0,0,0,0
		c-0.4,0.2-0.8,0.3-1.2,0.2h-2.9L308.1,407.7z"/>
	<path d="M242.7,427.3c0.8,0,1.4,0.7,1.4,1.5c0,0,0,0.1,0,0.1c0,1-1,1.1-2.1,1.5c-2,0.7-3,1.8-3.3,3.3c0.6-0.6,1.5-1,2.4-0.9
		c2.2-0.1,4,1.5,4.1,3.7c0,0.1,0,0.1,0,0.2c0,2.4-2,4.4-4.9,4.4c-1.2,0-2.4-0.4-3.3-1.2c-1.1-1.1-1.6-2.6-1.5-4.1
		C235.3,431.4,238.5,427.8,242.7,427.3z M240.3,438.5c0.9,0,1.6-0.7,1.7-1.6c0-0.1,0-0.1,0-0.2c0.1-0.9-0.6-1.6-1.5-1.7
		c-0.1,0-0.2,0-0.2,0c-0.8-0.1-1.6,0.6-1.7,1.4c0,0.1,0,0.2,0,0.2c-0.1,0.9,0.6,1.7,1.5,1.8C240.2,438.5,240.2,438.5,240.3,438.5z"
		/>
	<path d="M170.5,405.7c-0.4,0.1-0.9,0-1.2-0.2c-0.4-0.3-0.5-0.7-0.5-1.2c-0.1-0.5,0.1-0.9,0.5-1.2c0.4-0.2,0.8-0.3,1.2-0.2h6.3
		c0.4,0,0.8,0,1.1,0.2c0.3,0.2,0.4,0.5,0.4,0.8c0,0.6-0.2,1.1-0.4,1.6l-3.6,8.9c-0.5,1.1-0.9,1.6-2.1,1.6s-1.4-0.3-1.4-0.9
		c0-0.3,0.1-0.6,0.2-0.9l3.7-8.5H170.5z"/>
	<path d="M138.1,358.2c2.8,0,4.4,1.6,4.4,3.6c0,1.3-0.7,2.4-1.9,2.9c1.4,0.5,2.3,1.8,2.4,3.2c0,2-1.6,3.9-5,3.9
		c-3.4,0-4.8-1.8-4.8-3.8c0.1-1.5,1-2.8,2.4-3.3c-1.2-0.5-1.9-1.6-1.9-2.9C133.5,359.8,135.2,358.2,138.1,358.2z M138,369.4
		c0.9,0.1,1.7-0.5,1.8-1.4c0-0.1,0-0.1,0-0.2c-0.1-1-0.9-1.7-1.9-1.7c-0.9,0.1-1.6,0.8-1.7,1.7c0,0.9,0.7,1.6,1.6,1.7
		C137.9,369.4,137.9,369.4,138,369.4z M138,363.5c0.8,0,1.4-0.6,1.4-1.4c0,0,0,0,0-0.1c0-0.7-0.5-1.3-1.2-1.4c-0.1,0-0.2,0-0.2,0
		c-0.7-0.1-1.4,0.5-1.4,1.2c0,0.1,0,0.1,0,0.2c0,0.8,0.5,1.4,1.3,1.5C137.9,363.5,137.9,363.5,138,363.5z"/>
	<path d="M122.7,322.3c-0.7,0.1-1.4-0.4-1.5-1.1c0-0.1,0-0.2,0-0.3c0-1,0.7-1.1,1.7-1.4c1.9-0.6,3.5-1.7,3.8-3.6
		c-0.6,0.7-1.5,1.1-2.4,1c-2.2,0.1-4-1.5-4.1-3.7c0-0.1,0-0.2,0-0.2c0-2.4,1.9-4.3,4.9-4.3c1.3-0.1,2.5,0.4,3.5,1.3
		c1,1.2,1.5,2.7,1.4,4.3C130.1,318.4,126.9,322,122.7,322.3z M125.1,311.1c-0.9,0-1.6,0.6-1.7,1.5c0,0.1,0,0.1,0,0.2
		c0.1,0.9,1,1.5,1.9,1.4c0.7-0.1,1.3-0.7,1.4-1.4C126.7,311.9,126,311.2,125.1,311.1C125.1,311.1,125.1,311.1,125.1,311.1
		L125.1,311.1z"/>
	<g>
		<path d="M136.7,271.4c0.1,0.4,0,0.9-0.2,1.3c-0.3,0.4-0.8,0.5-1.3,0.5c-0.5,0.1-1-0.1-1.3-0.5c-0.2-0.4-0.3-0.8-0.2-1.3v-7.8
			l-0.9,0.4c-0.2,0.1-0.4,0.2-0.7,0.2c-0.8,0-1.3-0.9-1.3-1.6c0-0.7,0.5-1.1,1.1-1.3l2.5-1.2c0.4-0.2,0.8-0.3,1.2-0.3
			c0.3,0,0.6,0.1,0.9,0.3c0.2,0.3,0.3,0.8,0.3,1.2V271.4z"/>
		<path d="M144.6,259.7c3.5,0,5,2.7,5,6.7c0,4.2-1.7,6.9-5.2,6.9c-3.5,0-5-2.7-5-6.7C139.4,262.4,141.1,259.7,144.6,259.7z
			 M144.5,270.6c1.7,0,2.1-1.9,2.1-4.1s-0.3-4.1-2.1-4.1c-1.8,0-2.1,1.9-2.1,4.1S142.8,270.6,144.5,270.6L144.5,270.6z"/>
	</g>
	<g>
		<path d="M171.6,229.1c0.1,0.4,0,0.9-0.2,1.3c-0.3,0.4-0.8,0.5-1.3,0.5c-0.5,0.1-1-0.1-1.3-0.5c-0.2-0.4-0.3-0.8-0.2-1.3v-7.8
			l-0.9,0.4c-0.2,0.1-0.4,0.2-0.7,0.2c-0.8,0-1.3-0.9-1.3-1.6s0.5-1.1,1.1-1.3l2.5-1.2c0.4-0.2,0.8-0.3,1.2-0.3
			c0.3,0,0.6,0.1,0.9,0.3c0.2,0.3,0.3,0.8,0.3,1.2V229.1z"/>
		<path d="M179.6,229.1c0.1,0.4,0,0.9-0.2,1.3c-0.3,0.4-0.8,0.5-1.3,0.5c-0.5,0.1-1-0.1-1.3-0.5c-0.2-0.4-0.3-0.8-0.2-1.3v-7.8
			l-0.9,0.4c-0.2,0.1-0.4,0.2-0.7,0.2c-0.8,0-1.3-0.9-1.3-1.6s0.5-1.1,1.1-1.3l2.5-1.2c0.4-0.2,0.8-0.3,1.2-0.3
			c0.3,0,0.6,0.1,0.9,0.3c0.2,0.3,0.3,0.8,0.3,1.2V229.1z"/>
	</g>
	<g>
		<path d="M237.7,209.2c0.1,0.4,0,0.9-0.2,1.3c-0.3,0.4-0.8,0.5-1.3,0.5c-0.5,0.1-0.9-0.1-1.3-0.5c-0.2-0.4-0.3-0.8-0.2-1.3v-7.8
			l-0.9,0.4c-0.2,0.1-0.4,0.2-0.7,0.2c-0.8,0-1.3-0.9-1.3-1.6s0.5-1.1,1.1-1.3l2.5-1.2c0.4-0.2,0.8-0.3,1.2-0.3
			c0.3,0,0.6,0.1,0.9,0.3c0.2,0.3,0.3,0.8,0.3,1.2L237.7,209.2z"/>
		<path d="M242.3,205.9c2.2-2.5,3.5-3.1,3.5-4.4c0-0.7-0.5-1.2-1.2-1.3c-0.1,0-0.1,0-0.2,0c-0.6,0-1.2,0.3-1.7,0.7
			c-0.3,0.3-0.7,0.5-1.1,0.5c-0.8,0-1.5-0.6-1.5-1.4c0-0.7,0.7-1.4,1.5-1.9c0.9-0.5,2-0.8,3.1-0.8c2.2,0,4.3,1.1,4.3,3.7
			c0,3-2.9,4.1-4.9,6.8h3.8c0.4,0,0.8,0,1.1,0.2c0.3,0.3,0.5,0.7,0.5,1.2c0.1,0.5-0.1,0.9-0.5,1.2c-0.3,0.2-0.7,0.3-1.1,0.2h-6.2
			c-0.7,0-1.6-0.2-1.6-1.2C240.3,208.5,241.1,207.3,242.3,205.9z"/>
	</g>
</g>
<g>
	<rect x="578.3" y="494.7" class="st7" width="3.9" height="45"/>
	<polygon class="st8" points="670.2,341 675.7,335.5 580.5,240.3 485.2,335.5 490.6,340.9 580.5,251.4 	"/>
	<polygon class="st0" points="507,324.6 507,503 650.8,503 650.8,321.6 580.5,251.4 	"/>
	<rect x="560.4" y="316.1" class="st4" width="40.3" height="40.3"/>
	<polygon class="st9" points="560.4,316.1 547.6,320.7 547.6,362.6 560.4,356.4 	"/>
	<polygon class="st9" points="600.7,316.1 614.3,323.7 614.3,362.6 600.7,356.4 	"/>
	<path class="st10" d="M612.1,376l-4.2-13.8l-7.4,9.9l-5.6-14.4l-7.8,11.4l-7.6-15.6l-2.9,3.5l-1.1-0.9l3.3-4l-3.4-7.1l1.3-0.6
		l3.1,6.5l9.4-11.4l5.9,15.2l8.2-12l5,16.3l8.7-11.8l7,19.2L612.1,376z M609,360.8l3.9,12.7l9.5-7.5l-5.6-15.6L609,360.8z
		 M596,356.4l5,12.8l6.4-8.7l-4.4-14.4L596,356.4z M580.7,352.4l6.7,13.9l6.9-10.1l-5.4-13.8L580.7,352.4z"/>
	<path class="st11" d="M652.1,365c0,6.3-3.9,9.6-8,9.9c-4.1,0.2-6.9-0.6-7.6-1.7c2.7-2.2,4-5.7,3.3-9.1c1.3,6.1-10,14.1-18.3,13.1
		c-8.3-1-4.1-6.3-0.6-5.7c-3-2.6,0-5.4,3.7-3.3c-2.6-3,0.7-4.6,3.3-3.7c-2.2-3.5,1.9-5.9,4.1-4.6c1.9-3,8.5-6.5,13.3-3.4"/>
	<circle class="st11" cx="650.8" cy="359.1" r="6"/>
	<polygon class="st12" points="656.8,359.1 660.1,357.9 656.5,361.1 660.1,363.9 655.2,363.2 	"/>
	<path class="st13" d="M653.6,359.7c-0.3,0-0.6-0.3-0.6-0.6c0,0,0,0,0,0v-2.7c0.1-0.3,0.4-0.5,0.7-0.4c0.2,0,0.4,0.2,0.4,0.4v2.7
		C654.1,359.4,653.9,359.7,653.6,359.7z"/>
	<polygon class="st11" points="634.4,357.5 631.6,339.4 623.2,340.2 628.8,360 633.6,362.6 	"/>
	<circle class="st7" cx="580.5" cy="432.8" r="47.8"/>
	<circle class="st3" cx="580.6" cy="432.8" r="39.9"/>
	<rect x="580.2" y="405.8" class="st4" width="0.7" height="36"/>
	<path class="st4" d="M580.6,405.8c0.6,1.5,2.2,0.4,2-0.9c-0.2-1.3-2-3.1-2-6.5c0,3.3-1.9,5.2-2,6.5
		C578.3,406.2,579.8,407.3,580.6,405.8z"/>
	<path class="st4" d="M566.1,438.7c1.1-1.2-0.6-2.2-1.7-1.5c-1.1,0.7-2,3.2-5.1,4.6c3-1.4,5.5-0.5,6.7-0.8
		C567.3,440.5,567.8,438.7,566.1,438.7z"/>
	<polygon class="st4" points="565.2,439.7 564.8,439 585.4,429.7 585.7,430.4 	"/>
	<circle class="st4" cx="585.6" cy="430.1" r="1"/>
	<circle class="st4" cx="580.6" cy="441.8" r="1"/>
	<circle class="st8" cx="580.8" cy="553.5" r="26.8"/>
</g>
</svg>
