<?xml version="1.0" encoding="utf-8"?>
<!-- Generator: Adobe Illustrator 21.0.2, SVG Export Plug-In . SVG Version: 6.00 Build 0)  -->
<svg version="1.1" id="Calque_2" xmlns="http://www.w3.org/2000/svg" xmlns:xlink="http://www.w3.org/1999/xlink" x="0px" y="0px"
	 viewBox="0 0 800 614" style="enable-background:new 0 0 800 614;" xml:space="preserve">
<style type="text/css">
	.st0{fill:#B9DCF0;}
	.st1{fill:#575756;}
	.st2{fill:#3C3C3B;}
	.st3{fill:url(#SVGID_1_);}
	.st4{fill:#878787;}
	.st5{fill:#C59527;}
	.st6{opacity:0.48;fill:#DEEFF8;enable-background:new    ;}
	.st7{fill:#B2B2B2;}
	.st8{fill:#56ABDB;}
	.st9{fill:#8AC5E6;}
	.st10{fill:#C6C6C6;}
	.st11{fill:#E94E1B;}
	.st12{fill:#EDEDED;}
	.st13{fill:#FFFFFF;}
	.st14{fill:#706F6F;}
	.st15{fill:#9D9D9C;}
	.st16{fill:url(#SVGID_2_);}
	.st17{fill:#1D1D1B;}
	.st18{opacity:0.51;fill:#DEEFF8;enable-background:new    ;}
</style>
<title>machine</title>
<g>
	<rect x="86" y="205.3" class="st0" width="116.9" height="286.6"/>
	<rect x="86" y="366.2" class="st1" width="116.9" height="125.7"/>
	<rect x="86" y="205.3" class="st2" width="116.9" height="14.8"/>
	<rect x="86" y="220.1" class="st1" width="116.9" height="74.9"/>
	
		<linearGradient id="SVGID_1_" gradientUnits="userSpaceOnUse" x1="143.9086" y1="479.7834" x2="143.9086" y2="583.539" gradientTransform="matrix(1 0 0 1 0 -104)">
		<stop  offset="0.4" style="stop-color:#432918"/>
		<stop  offset="0.65" style="stop-color:#7D4E24"/>
		<stop  offset="0.91" style="stop-color:#B17F4A"/>
	</linearGradient>
	<rect x="95.6" y="375.8" class="st3" width="96.7" height="103.8"/>
	<path class="st2" d="M86,240.4H50.8c0,0,10.5,6.2,10.5,13.1c0,7.1-0.9,41.3,24.7,41.3V240.4z"/>
	<path class="st4" d="M95.6,205.3c0-54.6,96.7-54.6,96.7,0H95.6z"/>
	<path class="st2" d="M202.9,205.3c95,0,107.3,98.5,28.1,121.3v-16.9c52-14.8,46.6-89.6-28.1-89.6V205.3z"/>
	<rect x="141.3" y="295" class="st5" width="5.3" height="71.2"/>
	<rect x="142.6" y="146.4" class="st5" width="2.6" height="18"/>
	<circle class="st5" cx="144" cy="137.8" r="8.6"/>
	<rect x="156.3" y="229.9" class="st6" width="29" height="239.1"/>
	<path class="st7" d="M146.1,170.6c12.3,0,36.1,9.4,36.5,29.4h-18.9C163.7,200,168.2,185.1,146.1,170.6z"/>
</g>
<g>
	<polygon class="st1" points="266.3,252.3 266.3,443.2 480.8,443.2 480.8,229 266.3,229 	"/>
	<polygon class="st8" points="547.2,435 547.2,107.2 480.8,137.2 480.8,483.6 	"/>
	<polygon class="st8" points="429.3,252.3 480.8,229 480.8,137.2 420.8,142.9 	"/>
	<polygon class="st8" points="480.8,483.6 426.1,521.7 426.1,483.6 480.8,443.2 	"/>
	<polygon class="st7" points="266.3,443.2 199.6,483.6 426.1,483.6 480.8,443.2 	"/>
	<rect x="199.6" y="483.6" class="st9" width="226.7" height="38"/>
	<rect x="386.6" y="252.3" class="st10" width="24.9" height="40.4"/>
	<rect x="288.8" y="252.3" class="st10" width="24.1" height="40.4"/>
	<path class="st4" d="M371.8,475.1H262.3c-1.3,0-2.3-1-2.3-2.3c0-1.3,1-2.3,2.3-2.3h109.5c1.3,0,2.3,1,2.3,2.3
		C374.1,474.1,373,475.1,371.8,475.1z"/>
	<path class="st4" d="M380.4,465.7H269.4c-1.3,0-2.3-1-2.3-2.3c0-1.3,1-2.3,2.3-2.3h110.9c1.3,0,2.3,1,2.3,2.3
		C382.6,464.7,381.6,465.7,380.4,465.7L380.4,465.7z"/>
	<path class="st4" d="M396.3,457.9H283.1c-1.3,0-2.3-1-2.3-2.3c0-1.3,1-2.3,2.3-2.3h113.2c1.3,0,2.3,1,2.3,2.3
		C398.6,456.8,397.6,457.9,396.3,457.9z"/>
	<rect x="214" y="490.6" class="st11" width="13.7" height="26.4"/>
	<rect x="291.6" y="256.2" class="st12" width="4.7" height="32.6"/>
	<rect x="390.1" y="259.4" class="st12" width="4.7" height="29.4"/>
	<polygon class="st9" points="523.1,137.2 538.7,129.8 538.7,423 523.1,435 	"/>
	<path class="st13" d="M445.6,368c23.3-10.4,55,34.5-22.9,75L445.6,368z M428,432.2c54.2-30.6,37.7-65.7,16-56.7L428,432.2z"/>
	<path class="st13" d="M350.8,360.4h94.9c0,0,3.4,38.9-30.1,95.5h-38.7C376.8,455.9,348.5,415.4,350.8,360.4z"/>
	<path class="st12" d="M401,366.8h35.8c0,26.7-19.5,71.8-24.7,81.3H398C398,448,423.5,412.1,401,366.8z"/>
	<path class="st13" d="M263.6,442.6c-78-40.4-46.1-85.3-22.9-75L263.6,442.6z M242.4,375.1c-21.7-9-38.4,26.1,16,56.7L242.4,375.1z"
		/>
	<path class="st13" d="M335.4,360h-94.9c0,0-3.4,38.9,30.1,95.5h38.7C309.5,455.6,337.8,415,335.4,360z"/>
	<path class="st12" d="M285.3,366.4h-36c0,26.7,19.5,71.8,24.7,81.3h14.3C288.2,447.7,262.7,411.9,285.3,366.4z"/>
	<path class="st9" d="M237.6,252.3c3.9-48.9,7-95.4,13.9-103.2c7-7.8,73.7-41.9,73.7-41.9h222c0,0-92.3,39.6-103.2,50.5
		c-10.8,10.8-14.7,75.3-14.7,94.7L237.6,252.3z"/>
	<path class="st0" d="M269.4,162.3c-3.1,19.4-5.5,55.9-7,77.6h38.5c0,0-0.3-63.7,4.2-77.6H269.4z"/>
	<polygon class="st0" points="283,145.2 312.9,145.2 361,114.4 331.5,114.4 	"/>
	<polygon class="st2" points="312.1,252.3 215.9,299.7 220.6,339.9 356.3,252.3 	"/>
	<ellipse class="st14" cx="215.9" cy="320.7" rx="11.9" ry="21"/>
	<path class="st15" d="M233.7,299.7l71.5-37.2l-66.3,48.2C237.6,302.4,233.7,299.7,233.7,299.7z"/>
	<rect x="262.3" y="490.6" class="st0" width="38.5" height="26.4"/>
</g>
<g>
	<path class="st0" d="M727,308.7H592.1c-27.4,28.4-64,98.7-64,181.8h229c0-55.4-17.2-118.9-49.4-165.4L727,308.7z"/>
	
		<linearGradient id="SVGID_2_" gradientUnits="userSpaceOnUse" x1="-117.1771" y1="455.8849" x2="-117.1771" y2="547.8839" gradientTransform="matrix(-1 0 0 1 526.79 -104.06)">
		<stop  offset="0.41" style="stop-color:#432918"/>
		<stop  offset="0.49" style="stop-color:#4C2F1B"/>
		<stop  offset="0.61" style="stop-color:#633F24"/>
		<stop  offset="0.77" style="stop-color:#885933"/>
		<stop  offset="0.81" style="stop-color:#936037"/>
		<stop  offset="0.85" style="stop-color:#96643A"/>
		<stop  offset="0.89" style="stop-color:#A07144"/>
		<stop  offset="0.93" style="stop-color:#B18653"/>
		<stop  offset="0.97" style="stop-color:#C7A469"/>
		<stop  offset="1" style="stop-color:#DDC07E"/>
	</linearGradient>
	<path class="st16" d="M707.6,352H575.9c-15,26.3-26.1,54.7-28.4,92h193C735.2,412.7,727,376,707.6,352z"/>
	<path class="st2" d="M755.3,460.5H529.5c0,0-1.6,18-1.6,30h229C757,477.3,755.3,460.5,755.3,460.5z"/>
	<path class="st17" d="M697.8,308.7v-13H527.9c0,0-59.6,47.9-41.7,133.2l13.5-11.4c-3.5-32.4,12.4-100.2,39.4-108.8H697.8z"/>
	<path class="st2" d="M697.8,295.7c-2.4-21.5-77.8-43.8-105.8,0H697.8z"/>
	<path class="st18" d="M625.5,319.6h-29c-13.9,20.4-32.9,59.9-32.9,131.1h30.9C592.1,414.5,610.6,330.7,625.5,319.6z"/>
	<rect x="563.7" y="467.9" class="st14" width="30.9" height="14.7"/>
</g>
</svg>
