<svg id="Calque_2" data-name="Calque 2" xmlns="http://www.w3.org/2000/svg" width="800" height="614" viewBox="0 0 800 614">
  <defs>
    <style>
      .cls-1 {
        fill: #f6a2d0;
      }

      .cls-2 {
        fill: #56abdb;
      }

      .cls-3 {
        fill: #8ac5e6;
      }

      .cls-4 {
        fill: #95c11f;
      }

      .cls-5 {
        fill: #f1f0d2;
      }

      .cls-6 {
        fill: #fff;
      }

      .cls-7 {
        fill: #ef55a9;
      }

      .cls-8 {
        fill: #fcdbed;
        opacity: 0.75;
      }

      .cls-9 {
        fill: #ededed;
      }
    </style>
  </defs>
  <title>tasse-03</title>
  <path class="cls-1" d="M85,373.28c-26.08-11-51.57,11.59-34.87,35.46,9.51,13.6,25.88,13.58,39.68,19.49s2.1,15.15,0,11.11c-2.58-5-11.63-5.36-9.59,3.17s17.72,11.31,23.08-1.79-5.16-19.44-16.86-23-35.12-8.93-30-26.59,29.23-7.08,29.76-6.66c5.13,4,18.5-6.5,18.5-6.5Z"/>
  <path class="cls-2" d="M351.2,186.89h396c0,134.91-124.59,210.3-142.85,217.45v23H483.73V405.13S352.79,338.46,351.2,186.89Z"/>
  <path class="cls-3" d="M637.43,204.88h82c0,69.84-75.66,153.43-120.1,184.64h-28S657,273.65,637.43,204.88Z"/>
  <rect class="cls-4" x="239.96" y="120.36" width="189.67" height="307.92"/>
  <path class="cls-4" d="M429.63,171.95c93.64-38.09,90.47,228.16,0,206.93Zm0,181.6c57.19,16.3,59.2-188.14,0-158.89Z"/>
  <path class="cls-5" d="M299.48,133.85H407.41v273H379.63V266.39S382.8,145,299.48,133.85Z"/>
  <path class="cls-5" d="M434.39,174.59v9.26c7.8-7.67,27.51-4.76,41,6.08C462.29,171.71,447.88,170.89,434.39,174.59Z"/>
  <path class="cls-1" d="M84.81,360.51H310.72c0,75.13-74.07,111.1-74.07,111.1H163.11S82.16,448.86,84.81,360.51Z"/>
  <path class="cls-6" d="M85.78,381.15H308.54a74.52,74.52,0,0,1-5,18.3H89.71S86.55,389,85.78,381.15Z"/>
  <path class="cls-7" d="M102.24,396.63l5.94-7.57c2.44-5.87-4-6-5.94-3.69-1.94-2.33-8.38-2.18-5.94,3.69Z"/>
  <path class="cls-7" d="M121.29,396.63l5.94-7.57c2.44-5.87-4-6-5.94-3.69-1.94-2.33-8.38-2.18-5.94,3.69Z"/>
  <path class="cls-7" d="M140.33,396.63l5.94-7.57c2.44-5.87-4-6-5.94-3.69-1.94-2.33-8.38-2.18-5.94,3.69Z"/>
  <path class="cls-7" d="M159.38,396.63l5.94-7.57c2.44-5.87-4-6-5.94-3.69-1.94-2.33-8.38-2.18-5.94,3.69Z"/>
  <path class="cls-7" d="M178.43,396.63l5.94-7.57c2.44-5.87-4-6-5.94-3.69-1.94-2.33-8.38-2.18-5.94,3.69Z"/>
  <path class="cls-7" d="M197.47,396.63l5.94-7.57c2.44-5.87-4-6-5.94-3.69-1.94-2.33-8.38-2.18-5.94,3.69Z"/>
  <path class="cls-7" d="M216.52,396.63l5.94-7.57c2.44-5.87-4-6-5.94-3.69-1.94-2.33-8.38-2.18-5.94,3.69Z"/>
  <path class="cls-7" d="M235.57,396.63l5.94-7.57c2.44-5.87-4-6-5.94-3.69-1.94-2.33-8.38-2.18-5.94,3.69Z"/>
  <path class="cls-7" d="M254.61,396.63l5.94-7.57c2.44-5.87-4-6-5.94-3.69-1.94-2.33-8.38-2.18-5.94,3.69Z"/>
  <path class="cls-7" d="M273.66,396.63l5.94-7.57c2.44-5.87-4-6-5.94-3.69-1.94-2.33-8.38-2.18-5.94,3.69Z"/>
  <path class="cls-7" d="M292.7,396.63l5.94-7.57c2.44-5.87-4-6-5.94-3.69-1.94-2.33-8.38-2.18-5.94,3.69Z"/>
  <path class="cls-8" d="M251.46,366.33h43.38s-25.92,65.6-58.73,90.47C255.7,420.82,274.21,379.55,251.46,366.33Z"/>
  <path class="cls-6" d="M532.46,339.41c40.11-17.87,94.86,59.5-39.49,129.23ZM502.08,450.11C595.6,397.32,567,336.8,529.57,352.27Z"/>
  <path class="cls-6" d="M369,326.3H532.49s6,67.06-52,164.67H413.85S365,421.13,369,326.3Z"/>
  <path class="cls-9" d="M455.51,337.41h61.9c0,46-33.73,123.8-42.46,140.07h-24.6S494.4,415.58,455.51,337.41Z"/>
</svg>
